<?xml version="1.0" encoding="utf-8"?>
<!-- Generator: Adobe Illustrator 23.0.1, SVG Export Plug-In . SVG Version: 6.00 Build 0)  -->
<svg version="1.1" xmlns="http://www.w3.org/2000/svg" xmlns:xlink="http://www.w3.org/1999/xlink" x="0px" y="0px"
	 viewBox="0 0 3495.81 861.36" style="enable-background:new 0 0 3495.81 861.36;" xml:space="preserve">
<style type="text/css">
	.st0{fill:#ED1C23;}
</style>
<g id="Layer_1">
</g>
<g id="Layer_2">
	<g>
		<path class="st0" d="M88.33,638.09V50.15h55.2v99.38c16.56-34.97,40.02-62.56,70.39-82.81c30.36-21.16,63.02-31.73,97.98-31.73
			c41.41,0,77.75,11.05,109.03,33.12c32.2,23,52.91,51.98,62.11,86.94c17.47-36.8,43.69-65.78,78.66-86.94
			c35.88-22.08,74.98-33.12,117.31-33.12c52.44,0,97.53,17.94,135.25,53.81c36.81,35.89,55.22,79.14,55.22,129.73v419.56h-55.22
			V218.53c0-38.62-13.34-71.75-40.02-99.36c-25.77-27.59-57.52-41.41-95.23-41.41c-43.25,0-81.89,15.19-115.92,45.55
			c-34.05,30.36-55.2,69-63.48,115.92v398.86h-55.2V218.53c0-38.62-12.42-71.75-37.27-99.36c-24.84-27.59-54.75-41.41-89.72-41.41
			c-41.41,0-78.66,16.11-111.78,48.3c-32.22,33.13-52.92,74.53-62.11,124.22v387.81H88.33z"/>
		<path class="st0" d="M1071.51,573.23c-47.86-57.97-71.78-134.33-71.78-229.11c0-94.77,23.92-171.12,71.78-229.09
			c47.84-57.05,111.33-85.58,190.45-85.58s142.61,26.23,190.45,78.67c47.84,52.45,71.77,122.38,71.77,209.78v26.22h-469.23
			c0,80.06,18.86,144,56.58,191.84s87.86,71.77,150.44,71.77c46.92,0,89.25-12.42,126.97-37.27
			c38.64-25.75,65.33-59.34,80.05-100.75h55.2c-9.2,54.28-38.64,99.38-88.33,135.25s-107.66,53.83-173.89,53.83
			C1182.83,658.79,1119.35,630.28,1071.51,573.23z M1468.98,291.68v-20.7c-4.61-54.28-26.69-100.3-66.25-138.02
			c-40.48-36.8-87.41-55.2-140.77-55.2c-53.38,0-99.83,18.86-139.39,56.58c-40.5,38.66-63.03,86.03-67.62,142.16v15.19H1468.98z"/>
		<path class="st0" d="M1687.58,573.23c-47.86-57.97-71.78-134.33-71.78-229.11c0-94.77,23.92-171.12,71.78-229.09
			c47.84-57.05,111.33-85.58,190.45-85.58s142.61,26.23,190.45,78.67c47.84,52.45,71.77,122.38,71.77,209.78v26.22h-469.23
			c0,80.06,18.86,144,56.58,191.84s87.86,71.77,150.44,71.77c46.92,0,89.25-12.42,126.97-37.27
			c38.64-25.75,65.33-59.34,80.05-100.75h55.2c-9.2,54.28-38.64,99.38-88.33,135.25s-107.66,53.83-173.89,53.83
			C1798.91,658.79,1735.42,630.28,1687.58,573.23z M2085.05,291.68v-20.7c-4.61-54.28-26.69-100.3-66.25-138.02
			c-40.48-36.8-87.41-55.2-140.77-55.2c-53.38,0-99.83,18.86-139.39,56.58c-40.5,38.66-63.03,86.03-67.62,142.16v15.19H2085.05z"/>
		<path class="st0" d="M2267.76,858.9V50.15h55.2v121.45c15.64-42.31,41.86-76.81,78.67-103.5c36.8-25.77,77.28-38.66,121.45-38.66
			c79.12,0,142.14,28.53,189.08,85.58c47.84,57.97,71.77,134.33,71.77,229.09c0,92.02-23.02,165.62-69.02,220.83
			c-45.09,55.2-105.81,82.8-182.17,82.8c-45.09,0-86.5-12.42-124.22-37.27c-37.72-23.91-66.25-56.58-85.56-97.98V858.9H2267.76z
			 M2673.51,534.57c36.81-49.67,55.22-115,55.22-195.97s-18.41-145.38-55.22-193.22c-35.88-48.75-84.19-73.14-144.91-73.14
			c-57.05,0-105.34,26.22-144.91,78.66c-40.5,51.53-60.73,114.11-60.73,187.7c0,74.53,20.23,138.02,60.73,190.45
			c39.56,52.45,87.86,78.67,144.91,78.67C2589.32,607.73,2637.63,583.36,2673.51,534.57z"/>
		<path class="st0" d="M2961.1,564.95c-50.61-55.2-75.91-128.81-75.91-220.83c0-94.77,25.3-171.12,75.91-229.09
			c49.69-57.05,116.39-85.58,200.12-85.58c82.8,0,149.5,28.53,200.11,85.58c49.69,57.97,74.53,134.33,74.53,229.09
			c0,92.02-24.84,165.62-74.53,220.83c-50.61,55.2-117.31,82.8-200.11,82.8C3077.49,647.75,3010.79,620.15,2961.1,564.95z
			 M3321.32,531.82c39.56-46.92,59.34-109.48,59.34-187.7c0-80.97-19.78-145.38-59.34-193.22c-40.5-48.75-93.86-73.14-160.09-73.14
			c-67.17,0-120.53,24.39-160.09,73.14c-40.5,47.84-60.73,112.25-60.73,193.22c0,78.22,20.23,140.78,60.73,187.7
			c39.56,46.92,92.92,70.38,160.09,70.38C3227.46,602.2,3280.82,578.75,3321.32,531.82z"/>
	</g>
</g>
</svg>
